# xmcd
#
# Track frame offsets: 
#        150
#        7755
#        15885
#        35056
#        49703
#        65799
#        88359
#        98775
#        111347
#        118633
#        135310
#        159909
#        181340
#        197885
#        212475
#
# Disc length: 3020 seconds
#
# Revision: 4
# Processed by: cddbd v1.5.2PL0 Copyright (c) Steve Scherf et al.
# Submitted via: ExactAudioCopyFreeDBPlugin 1.0
#
DISCID=c20bca0f
DTITLE=陳潔儀 - 就是陳潔儀演唱會
DYEAR=2002
DGENRE=Pop
TTITLE0=序曲
TTITLE1=原來只要為你活一天
TTITLE2=逼得太緊
TTITLE3=開場白
TTITLE4=拔河
TTITLE5=擔心
TTITLE6=祭舞
TTITLE7=出現
TTITLE8=男人真有趣
TTITLE9=願望
TTITLE10=分裂
TTITLE11=至少還有你
TTITLE12=我真的愛錯
TTITLE13=眼睛溼溼的
TTITLE14=喜歡你
EXTD=
EXTT0=
EXTT1=
EXTT2=
EXTT3=
EXTT4=
EXTT5=
EXTT6=
EXTT7=
EXTT8=
EXTT9=
EXTT10=
EXTT11=
EXTT12=
EXTT13=
EXTT14=
PLAYORDER=
